<svg width="144" height="162" viewBox="0 0 144 162" fill="none" xmlns="http://www.w3.org/2000/svg">
<path d="M142.942 60.4399C143.408 55.7121 141.164 53.4066 139.212 52.3268C138.921 52.1517 138.6 52.0058 138.28 51.889C137.493 51.5972 136.648 51.4513 135.803 51.4513C133.997 51.4513 132.628 52.1225 131.695 52.7646C130.034 52.8229 128.723 53.2315 127.762 53.6109C126.888 51.889 125.577 50.8092 124.732 50.1964C123.741 48.3286 122.284 47.2196 121.177 46.5192C120.623 44.0386 119.341 42.0249 118.205 40.624C118.205 40.5948 118.176 40.5949 118.176 40.5657C118.147 40.5073 118.147 40.4489 118.118 40.3906C117.826 39.661 117.477 38.6979 116.923 37.7348C116.865 37.6181 116.836 37.5014 116.777 37.3554C116.282 36.0713 115.641 34.2911 114.388 32.6276C113.893 30.2054 112.815 28.4252 112.028 27.1119C111.999 27.0827 111.97 27.0243 111.941 26.9951C113.106 24.8939 114.243 21.2459 111.562 16.1095C111.533 16.0803 111.533 16.0512 111.504 15.9928C110.164 13.5122 107.716 12.053 104.977 12.053C104.657 12.053 104.366 12.0821 104.074 12.1113C102.85 11.5568 101.481 11.2358 100.053 11.2358C98.48 11.2358 96.9941 11.6152 95.7412 12.3156C94.6632 11.9946 93.6434 11.7903 92.7111 11.586C92.1866 11.4693 91.6622 11.3525 91.196 11.2358C89.1273 10.0976 86.3011 8.84273 83.3584 8.84273C81.0858 8.84273 78.7549 9.65988 77.0067 11.3526C76.3949 10.7689 75.7539 10.3603 75.1712 10.0393C74.2971 9.57233 73.423 9.28049 72.6072 9.10539C72.8985 7.90885 72.8694 6.65394 72.4906 5.39903C71.6457 2.68492 69.3148 0.758782 66.5177 0.437759C65.7019 0.14592 64.857 0 64.012 0C63.1088 0 62.3221 0.14592 61.6811 0.350207C60.9527 0.204288 60.1952 0.116736 59.4085 0.116736C58.2431 0.116736 57.1942 0.291839 56.3784 0.408575C56.0287 0.466943 55.5625 0.525311 55.3295 0.554495C55.009 0.496127 54.6885 0.496127 54.368 0.496127C53.9601 0.496127 53.5522 0.525311 53.1734 0.612863C52.7363 0.700414 52.2702 0.787966 51.804 0.846334C49.24 1.28409 46.0642 1.83859 43.0049 3.67718C42.9466 3.70636 42.8883 3.73554 42.8301 3.76473C42.597 3.76473 42.3639 3.76473 42.1308 3.79391C41.2567 3.2686 39.9456 2.65574 38.2557 2.65574C34.2058 2.65574 32.1663 5.6325 31.0591 7.9964C30.4764 8.22987 29.8645 8.55089 29.2235 9.01784C27.8541 9.86417 26.98 10.8856 26.4264 11.907C25.2027 13.5705 24.5617 15.4091 24.1538 16.8975C23.9207 16.8683 23.6877 16.8099 23.4546 16.8099C23.2506 16.7808 23.0467 16.7808 22.8427 16.7808C22.5222 16.7808 22.2308 16.8099 21.9103 16.8391C21.1528 16.9559 20.4827 17.1602 19.8708 17.4228C19.0259 17.0726 18.1518 16.8975 17.2194 16.8975C14.7429 16.8975 12.5285 18.2108 11.2757 20.3704C10.5764 21.5669 9.67319 24.0767 11.3631 27.3745C12.0041 28.6294 12.7616 29.5633 13.5192 30.2346C12.9947 30.9642 12.4703 31.8689 12.1206 32.9487C11.8584 33.2697 11.5962 33.6199 11.3922 33.9701C10.5473 35.1958 10.0228 36.7426 9.93541 38.4061C9.87714 39.7485 10.1102 41.0326 10.5764 42.1416C10.6055 42.2291 10.6347 42.2875 10.6638 42.3751C10.5764 43.3673 10.6638 44.2428 10.8095 44.9433C10.6638 45.2935 10.5473 45.6437 10.4307 45.9939C10.1394 46.8694 10.0228 47.6865 9.99368 48.4161C8.30379 50.9551 8.50774 53.4358 9.03219 55.1284C9.1196 55.537 9.26528 55.9456 9.4401 56.325C9.23615 58.6597 9.96455 61.0236 11.567 63.0373C12.7616 64.5257 14.1893 65.5763 15.2382 66.3351C15.2673 66.3934 15.3256 66.4518 15.3547 66.5102C15.4713 66.6853 15.617 66.8896 15.7044 67.0355C16.1123 68.9616 17.1029 70.6835 18.6471 72.1719C19.3755 72.8723 20.2205 73.4268 21.1528 73.8062C21.3276 73.8645 21.3568 73.8937 22.0269 74.7109C22.8427 75.7031 24.0664 77.1623 26.0768 78.3005C26.8344 78.8842 27.6793 79.2927 28.6117 79.497C29.2818 79.7305 29.9519 79.8764 30.6803 79.8764C31.1174 79.9348 31.5544 79.964 31.9914 79.964C34.2932 79.964 36.1288 79.2052 37.4982 78.6507C37.5564 78.6215 37.6147 78.5923 37.673 78.5923C38.3431 78.855 39.1007 79.1176 40.0913 79.2636C40.4409 79.3219 40.7905 79.3803 41.111 79.4095C42.3348 80.1974 43.7333 80.6352 45.1901 80.6352C45.2484 80.6352 45.3358 80.6352 45.4232 80.6352H45.6271C46.1516 80.6352 46.6178 80.606 47.0839 80.5185C47.1714 80.606 47.2588 80.7228 47.3462 80.8103C47.7249 81.6275 48.2494 82.3571 48.8904 82.9407C49.2109 83.5828 49.5896 84.1081 49.9976 84.575C50.4055 85.5965 51.0465 86.5012 51.8914 87.2308C51.9205 87.26 51.9205 87.2891 51.9497 87.2891C52.1245 87.5518 52.3284 87.8728 52.5907 88.223L52.6781 88.3106C52.8238 88.5149 52.9694 88.69 53.1151 88.8943C53.4356 89.3028 53.9018 89.8573 54.5137 90.3826C54.5719 90.441 54.6302 90.4994 54.7176 90.5869C54.8341 90.7037 54.9216 90.7912 55.0381 90.908C55.0964 91.0247 55.1838 91.1998 55.2712 91.3457C55.7082 92.192 56.3201 93.4178 57.4273 94.5851C57.4273 94.6143 57.4564 94.6143 57.4564 94.6435C57.2524 95.6649 57.1068 96.8615 57.165 98.1748C56.9028 99.5464 57.0194 100.976 57.5729 102.26V102.29C57.8352 102.961 58.2139 103.574 58.6801 104.128C58.7092 104.187 58.7384 104.216 58.7384 104.274C58.8841 104.566 59.0006 104.858 59.1172 105.121C59.1172 105.412 59.1172 105.704 59.1463 105.996C58.6801 107.426 58.5927 108.973 58.9132 110.461C58.9423 110.549 58.9715 110.636 58.9715 110.724C58.0391 111.045 57.1942 111.395 56.3784 111.716C55.5625 112.037 54.805 112.358 54.1349 112.562C53.9601 112.621 53.8144 112.679 53.6396 112.738C53.5813 112.767 53.523 112.796 53.4647 112.796C52.6489 112.008 51.6583 111.453 50.5803 111.162L50.5511 111.132C49.3566 110.14 47.8415 109.586 46.2681 109.586C44.4908 109.586 42.9175 110.228 40.9945 111.278C39.6834 110.228 38.0518 109.732 36.5367 109.732C36.3036 109.732 36.0705 109.732 35.8374 109.761C35.75 109.761 35.6335 109.79 35.546 109.79C33.4774 110.082 31.6709 111.162 30.5346 112.854C30.3307 113.175 30.1559 113.467 29.9811 113.788C29.6023 113.934 29.2526 114.08 28.9613 114.255C28.2037 114.664 27.4753 115.16 26.8344 115.685C25.1736 114.401 23.5128 114.051 22.1726 114.051C21.5316 114.051 20.8906 114.138 20.2787 114.313C19.1716 113.613 17.8313 113.204 16.4328 113.204C15.3256 113.204 14.2767 113.438 13.3152 113.759C12.3537 113.35 11.3339 113.146 10.4307 113.146C10.3725 113.146 10.285 113.146 10.1976 113.146C7.80848 113.175 5.79808 114.313 4.6035 116.094C1.92298 116.94 0 119.45 0 122.31V123.565C0 125.52 0.874083 127.359 2.38916 128.555C2.85534 128.935 3.37979 129.256 3.93337 129.489C4.22473 130.89 4.80746 132.291 5.94377 133.487C6.73044 134.334 7.69193 134.947 8.76997 135.297C8.85738 136.347 9.06133 137.427 9.4401 138.507C8.88651 140.258 8.50774 141.104 7.80848 141.659C5.36104 143.643 4.72005 147.087 6.26426 149.801C6.78871 150.706 7.48798 151.465 8.30379 151.99C9.1196 152.807 10.1394 153.42 11.2757 153.712C11.8584 153.858 12.4703 153.945 13.053 153.945C14.4515 153.945 15.7626 153.537 16.9863 152.749C17.1903 152.865 17.3943 153.011 17.5982 153.128C18.0061 153.362 19.2881 154.062 21.0654 154.062C22.2017 154.062 23.338 153.77 24.3286 153.216C25.0862 152.778 25.7563 152.253 26.2808 151.611C26.4264 151.494 26.543 151.406 26.6887 151.29C27.1548 151.173 27.5045 151.027 27.7667 150.91C28.4077 150.647 28.9613 150.326 29.4857 149.947C30.7969 151.319 32.6033 152.136 34.5554 152.136C35.0216 152.136 35.4878 152.077 35.9248 151.99C35.954 151.99 36.0122 151.961 36.0414 151.961C36.6824 151.815 37.3233 151.581 37.9352 151.231C39.4503 151.669 40.9362 151.873 42.0434 151.873C43.879 151.873 45.3066 151.406 46.3555 150.823C47.7249 151.465 49.3566 151.844 51.2795 151.873C51.3961 151.873 51.5418 151.873 51.7166 151.873C51.804 151.873 51.8623 151.873 51.9497 151.873C52.4741 151.99 52.9986 152.077 53.523 152.077C54.805 152.077 55.9122 151.756 56.9028 151.173C58.4179 151.085 59.5833 150.502 60.1661 150.181C61.5646 150.968 62.8466 151.173 63.8663 151.173C65.498 151.173 67.1004 150.589 68.3824 149.538C68.4407 149.509 68.499 149.451 68.5281 149.393C69.0234 148.955 69.4605 148.429 69.8101 147.875C70.0723 148.575 70.4511 149.334 71.0338 150.093C70.7425 152.34 71.4126 154.879 72.9859 157.272C74.9672 160.307 77.6477 162 80.5322 162C81.1732 162 81.785 161.912 82.426 161.737C82.9213 161.591 83.4167 161.416 83.8828 161.154C85.4271 161.095 86.6799 160.599 87.5831 160.045C87.6997 160.045 87.7871 160.045 87.9036 160.045C94.0513 160.045 99.5581 157.272 102.501 152.836C104.569 151.348 105.502 149.305 105.968 148.108C109.231 145.92 109.697 142.418 109.872 141.163C109.872 141.133 109.872 141.104 109.872 141.075C110.047 140.696 110.193 140.287 110.309 139.849C111.358 139.237 112.349 138.39 113.135 137.194C114.942 134.538 114.825 131.678 114.709 129.343C114.709 129.197 114.709 129.081 114.709 128.935C114.738 128.351 114.767 127.563 114.68 126.629C114.796 126.512 114.942 126.366 115.058 126.25C115.379 125.929 115.67 125.578 115.903 125.257C115.816 125.491 115.758 125.754 115.699 126.045C115.408 127.417 114.855 130.277 115.874 133.341C115.874 133.75 115.933 134.217 116.02 134.713C116.719 138.419 119.341 140.2 120.449 140.958L120.623 141.075C121.964 142.009 123.479 142.476 125.023 142.476C126.218 142.476 127.383 142.184 128.461 141.63C129.306 141.425 130.122 141.075 130.909 140.579C133.647 138.886 134.929 136.406 135.512 135.034C136.095 133.983 136.444 132.816 136.532 131.503C136.648 129.577 137.115 127.884 137.959 126.366C138.513 125.345 139.649 123.244 139.766 120.5C140.116 119.8 140.349 119.041 140.436 118.282C140.436 118.195 140.465 118.107 140.465 118.02C140.96 117.144 141.339 115.977 141.339 114.518C141.339 113.467 141.31 111.249 141.31 111.249C141.543 109.644 141.164 108.039 140.319 106.696C140.057 105.763 139.562 104.887 138.921 104.128C137.522 102.26 135.483 101.181 133.21 101.181C131.957 101.181 129.539 101.56 127.5 104.012C126.917 104.712 126.276 105.704 125.868 106.959C125.722 107.163 125.577 107.368 125.431 107.572C125.285 107.805 125.14 108.039 125.023 108.272C124.848 108.418 124.673 108.564 124.469 108.739C124.411 108.068 124.295 107.397 124.091 106.726C124.003 106.434 124.003 105.938 124.062 105.179C124.265 103.107 123.712 101.181 122.546 99.6631C122.401 98.7584 122.459 97.5327 122.517 96.2486C122.546 95.4315 122.576 94.5851 122.576 93.7096C122.634 92.6298 122.896 92.3671 123.042 92.2504C124.936 90.6453 126.072 88.8067 126.975 87.3475C127.412 86.6179 127.907 85.8008 128.228 85.5381C128.315 85.4797 128.403 85.3922 128.49 85.3046C128.723 85.1003 129.306 84.721 129.772 84.4291C131.316 83.466 133.706 81.9777 135.192 79.2927C135.774 78.7383 136.27 78.067 136.677 77.3082C136.998 76.8997 137.26 76.4911 137.493 76.0241C137.755 75.6448 137.959 75.2654 138.134 74.9152C138.222 74.7692 138.309 74.6233 138.396 74.4774C138.542 74.2147 138.659 73.9521 138.775 73.6894C139.562 72.4929 140.028 71.3547 140.378 70.4208C140.553 70.129 140.727 69.8372 140.873 69.5161C141.048 69.0784 141.194 68.6406 141.281 68.2029C141.339 68.0861 141.368 67.9694 141.427 67.8526C142.155 66.0724 143.146 63.621 143.029 60.6442C142.942 60.5858 142.942 60.4983 142.942 60.4399Z" fill="white"/>
<path d="M6.40991 122.31C7.42968 122.135 8.4203 121.814 9.41093 121.522C10.0519 121.405 9.76056 120.705 9.87711 120.238C9.90625 119.946 9.7897 119.567 10.3433 119.596C11.7418 119.479 10.4598 121.668 12.4119 120.967C13.3443 120.792 16.491 119.041 16.9863 119.858C17.2485 120.296 16.9572 120.705 16.6367 120.938C15.3256 122.164 13.5191 122.339 11.8292 122.514C11.363 122.543 11.2465 122.689 11.363 123.156C11.4505 124.791 13.4608 128.497 11.2465 129.139C9.44007 129.606 10.3724 124.324 10.1685 123.215C10.1685 122.835 10.1976 122.631 9.67316 122.777C8.62426 123.069 7.51708 123.273 6.43905 123.506C6.40991 123.156 6.40991 122.748 6.40991 122.31Z" fill="#1D1D1B"/>
<path d="M64.653 126.892C64.8569 127.446 64.6238 127.738 64.1285 128.001C61.6811 129.343 57.3689 130.627 55.8539 127.359C55.679 126.921 55.4168 127.067 55.1546 127.184C53.3481 127.855 51.6 128.672 49.6479 128.847C46.3263 129.226 45.1609 127.942 46.2972 124.732C46.8508 123.01 47.0547 121.23 47.1713 119.45C47.2296 118.574 47.6375 117.991 48.3367 117.553C50.0558 116.561 49.0943 119.858 48.8903 120.617C46.5594 126.979 46.0641 128.439 53.5812 126.892C53.7269 126.863 53.9309 126.833 53.9309 126.629C53.8435 125.199 55.7082 125.841 55.8539 124.674C56.0869 123.39 56.4949 122.164 57.3398 121.172C58.3596 119.683 59.3793 120.559 58.6509 122.106C58.5344 122.427 57.5146 124.119 58.4178 123.798C59.2919 123.652 61.0109 122.281 61.3023 123.682C61.5063 124.353 61.3314 124.615 60.7487 124.674C59.5541 124.849 56.3783 125.345 57.4855 127.125C58.2722 128.176 59.3502 128.38 60.5739 128.205C62.0016 128.03 63.2836 127.33 64.653 126.892Z" fill="#1D1D1B"/>
<path d="M36.5366 125.783C36.3909 125.199 36.9736 123.477 36.0121 123.652C35.7208 123.682 35.4003 123.711 35.1089 123.652C34.8758 123.623 34.4388 123.857 34.4097 123.36C34.3805 122.952 34.264 122.514 34.7884 122.222C36.3909 121.347 36.3618 121.318 36.0704 119.537C36.0704 118.545 34.9633 116.415 36.4492 116.21C37.061 116.152 37.265 116.561 37.3815 117.086C38.1391 122.748 38.6053 119.858 42.1307 118.049C42.83 117.699 46.035 115.714 46.5012 116.094C47.3752 116.969 40.6157 120.588 39.7124 121.405C36.1287 123.944 44.3159 124.878 44.2577 126.687C43.5875 127.855 39.7124 125.141 38.6344 124.761C38.1974 124.528 38.0808 124.674 38.0225 125.082C37.9351 125.958 37.8186 126.833 37.702 127.68C37.6729 127.942 37.6146 128.234 37.2941 128.351C36.0704 128.643 36.7406 126.512 36.5949 125.812C36.5366 125.783 36.5366 125.783 36.5366 125.783Z" fill="#1D1D1B"/>
<path d="M22.4056 146.474C22.0268 146.533 21.8229 146.591 21.6189 146.591C21.2693 146.649 21.1236 146.795 21.2401 147.145C21.2693 147.291 21.3858 147.466 21.211 147.583C21.0362 147.671 20.8614 147.583 20.6866 147.496C19.8707 147.029 19.288 146.299 18.7927 145.511C18.1517 144.519 17.6855 143.468 17.2485 142.359C17.1611 142.126 17.0445 141.921 16.8989 141.571C15.9665 143.702 15.4129 145.891 13.5482 147.291C13.3734 147.437 13.1986 147.583 12.8489 147.496C13.1112 146.766 13.1112 146.182 11.8 146.649C14.5097 144.46 15.1507 141.513 16.0539 138.711C16.2287 138.128 15.9665 137.661 15.7626 137.194C15.3255 136.201 15.0633 135.209 15.1507 134.129C15.2381 132.904 16.0831 132.203 17.2776 132.32C18.006 132.378 18.4431 132.787 18.6179 133.487C18.9384 134.83 18.7636 136.143 18.21 137.398C17.9186 138.04 17.8895 138.653 18.0934 139.324C18.5014 140.667 18.8801 142.009 19.5211 143.264C20.1038 144.577 20.9488 145.686 22.4056 146.474ZM16.9863 136.085C17.6564 135.18 17.7729 134.275 17.5399 133.312C17.4233 132.845 17.0737 132.787 16.6949 133.02C16.3744 133.225 16.2287 133.546 16.2579 133.896C16.287 134.655 16.5492 135.355 16.9863 136.085Z" fill="#E20616"/>
<path d="M15.7627 128.643C16.4619 125.462 19.055 122.981 21.4151 120.851C22.6096 119.742 23.7751 121.58 24.2704 122.543C24.4452 123.506 28.8156 128.701 26.5721 128.497C26.0768 128.497 25.7563 128.205 25.5232 127.826C24.4452 126.25 22.0269 127.125 20.6867 127.942C20.1622 128.38 18.3849 128.905 18.7637 127.651C19.3755 125.257 24.6492 125.666 23.7168 124.761C23.0758 123.944 22.2309 121.434 21.0946 123.156C19.6378 125.112 18.6471 127.534 16.6659 129.051C16.2288 129.372 15.5878 129.343 15.7627 128.643Z" fill="#1D1D1B"/>
<path d="M26.3099 139.849C27.2423 139.12 28.9322 138.215 29.8937 138.857C29.9228 139.703 28.9031 140.346 28.2038 140.608C26.1934 141.221 25.5524 142.097 25.6107 144.256C25.6107 144.49 25.7855 144.782 25.3776 144.927C24.7075 145.19 24.6492 145.19 24.6492 144.46C24.6492 143.964 24.6492 143.439 24.6492 142.943C24.6492 142.564 24.6783 142.242 24.183 142.009C23.7168 141.805 23.8625 141.192 24.1247 140.9C24.7949 140.054 24.5909 139.003 24.7949 138.011C24.8823 137.281 24.6783 137.164 24.0082 137.427C22.8136 137.748 22.3474 139.558 21.2694 139.499C20.4244 139.412 21.0654 137.427 21.5025 137.106C24.9405 134.859 28.9322 133.633 32.8364 132.437C33.0404 132.378 33.3317 132.086 33.4192 132.524C33.5066 132.816 33.5357 133.137 33.1278 133.312C31.03 134.275 28.9613 135.355 26.8635 136.289C25.8438 136.698 26.5139 138.77 26.3099 139.849Z" fill="#1D1D1B"/>
<path d="M36.3618 136.289C37.702 136.347 39.0714 136.085 40.4117 136.522C42.7134 137.077 42.4221 139.908 40.3534 140.608C36.5948 142.243 40.8487 144.519 43.0339 143.818C43.2087 143.76 43.5001 143.643 43.5584 143.935C44.4907 146.795 38.1099 144.957 37.1484 143.848C35.2837 142.505 37.4981 140.404 38.9549 139.849C39.421 139.674 39.7998 139.412 40.062 138.974C41.1984 136.989 35.8373 137.573 34.8467 137.865C34.06 138.069 33.2442 138.361 32.4284 138.361C31.9913 138.361 31.3795 138.478 31.2629 137.807C31.2629 135.589 34.905 136.464 36.3618 136.289Z" fill="#1D1D1B"/>
<path d="M53.2317 144.665C52.7655 143.497 57.136 139.091 58.01 137.631C58.7384 136.668 59.8456 136.727 60.4866 137.748C61.7103 139.703 62.9049 141.63 64.1286 143.585C64.3326 143.906 64.6239 144.315 64.2452 144.636C63.6916 145.103 62.8758 144.344 62.497 143.935C61.7103 142.505 58.1849 143.935 57.0777 144.548C56.6989 144.781 56.3493 144.927 56.0579 144.548C54.7468 142.359 59.3794 142.184 60.6614 141.776C61.1859 141.688 61.1276 141.513 60.8945 141.163C60.2244 140.462 59.4377 137.69 58.3014 139.207C57.8644 139.82 52.8238 148.575 53.2317 144.665Z" fill="#1D1D1B"/>
<path d="M51.4543 145.453C44.5199 145.482 46.9965 136.727 52.2701 135.764C52.7072 135.647 53.2025 135.589 53.4647 136.056C53.96 137.135 51.4834 138.419 50.7259 138.945C47.3753 140.842 47.6375 144.431 51.8622 144.694C52.1536 144.723 52.4741 144.636 52.4741 145.132C52.4449 145.686 52.037 145.365 51.8039 145.453C51.6874 145.482 51.5709 145.453 51.4543 145.453Z" fill="#1D1D1B"/>
<path d="M32.5158 129.081C30.5637 129.11 28.3785 128.351 28.5533 126.045C28.6407 123.39 29.6605 121.259 32.0788 119.917C32.6032 119.625 34.701 119.129 34.905 119.829C34.9341 120.617 33.9435 120.821 33.4482 121.23C32.1079 122.135 30.9133 123.185 30.0392 124.586C28.5824 126.746 31.4961 128.147 33.3316 128.293C33.5939 128.293 33.8269 128.293 33.8269 128.701C33.8269 129.314 32.9237 128.935 32.545 129.022C32.5158 129.051 32.5158 129.051 32.5158 129.081Z" fill="#1D1D1B"/>
<path d="M63.7206 116.123C63.9246 116.239 64.3616 115.831 64.4782 116.298C64.5656 116.794 64.0994 116.94 63.7498 117.086C60.6031 118.02 57.9517 120.004 55.0381 121.347C54.601 121.434 54.2223 121.288 54.0475 120.909C53.4647 119.712 55.242 119.012 56.087 118.662C58.6218 117.874 61.0401 116.473 63.7206 116.123Z" fill="#1D1D1B"/>
<path d="M46.0934 137.077C46.0351 138.157 46.0934 143.76 45.1901 143.527C44.6657 143.497 44.7822 143.118 44.7822 142.826C44.8696 140.2 44.6657 137.573 43.9664 135.034C43.7916 134.246 44.1121 133.312 44.724 132.991C46.6178 132.086 45.9185 136.318 46.0934 137.077Z" fill="#1D1D1B"/>
<path d="M35.0215 144.49C34.9632 144.898 35.138 145.599 34.6427 145.715C34.1183 145.832 33.8269 145.219 33.7686 144.84C33.5064 143.206 33.0694 141.6 32.9819 139.937C32.9528 139.528 33.0694 139.091 33.5647 139.061C34.7592 138.799 34.7301 143.527 35.0797 144.49C35.0506 144.49 35.0215 144.49 35.0215 144.49Z" fill="#1D1D1B"/>
<path d="M22.1727 25.6527C22.7263 25.4484 23.513 24.3686 23.5421 23.7849C23.5713 23.2888 23.2508 23.2304 22.9011 23.1721C22.6098 23.2012 22.231 23.2888 22.231 23.5806C22.2018 24.2227 21.9105 24.8064 21.8813 25.4192C21.8813 25.5943 21.9105 25.7694 22.1727 25.6527Z" fill="#009F3B"/>
<path d="M18.0352 25.5068C18.0643 25.5068 18.0934 25.5068 18.0934 25.5068C18.3557 25.5068 19.0258 24.7772 19.0258 24.4853C19.0258 24.3394 18.9966 24.1935 18.851 24.1643C18.3848 24.0476 18.0352 23.7557 17.6855 23.4639C17.4233 23.2596 17.1319 23.2304 16.928 23.5514C16.724 23.8725 17.6564 25.4484 18.0352 25.5068Z" fill="#009F3B"/>
<path d="M19.8126 26.2364C20.3953 26.2364 20.774 25.8861 20.774 25.3317C20.774 24.8063 20.3953 24.4853 19.9582 24.5145C19.1716 24.5729 19.6377 25.3316 19.4047 25.6527C19.3755 26.1488 19.4338 26.2072 19.8126 26.2364Z" fill="#009F3B"/>
<path d="M136.532 60.8777C136.357 59.9438 137.027 58.4554 136.066 57.9301C136.066 57.9301 136.066 57.9301 136.036 57.9301C135.046 57.5507 134.696 59.506 132.715 59.2142C130.093 58.864 129.131 60.5858 127.82 60.2648C127.063 60.0313 126.334 60.0605 125.664 60.7026C124.324 62.1034 122.343 59.4477 122.517 58.0468C122.546 57.6674 122.517 57.3172 122.284 56.9962C122.284 57.0546 122.255 57.1129 122.255 57.1421C122.08 55.4203 119.691 55.0993 119.225 53.4941C118.467 51.568 115.67 51.5388 115.204 49.4668C115.204 49.4376 115.204 49.4084 115.204 49.4084C115.262 49.2625 115.233 48.9706 115.088 48.8831C115.058 48.8539 115.058 48.8247 115.058 48.7955C114.971 47.0153 113.864 45.2059 112.582 43.9218C112.553 43.8926 112.553 43.8634 112.553 43.8343C112.582 43.6883 112.524 43.5132 112.436 43.3965C112.436 43.3965 112.436 43.3673 112.407 43.3673C112.028 42.4626 111.679 41.3828 111.154 40.5657C111.154 40.5657 111.154 40.5657 111.154 40.5365C110.455 38.8146 109.931 36.7426 108.299 35.4585C108.27 35.4293 108.27 35.4001 108.27 35.3709C108.27 31.9856 106.026 30.3513 105.036 27.4037C104.307 24.4561 108.619 24.3102 105.881 19.0279C105.007 17.3936 103.288 19.7575 102.239 18.561C101.539 17.5104 99.3833 17.2477 98.5092 18.1524C97.6351 19.0571 96.6153 19.2906 95.4499 18.9404C93.2938 18.0357 90.9921 17.8314 88.7777 17.1602H88.7486C85.8058 15.4675 80.9693 13.2203 80.6196 18.4151V18.4443C80.7944 19.3781 80.1826 21.421 79.0463 20.2537C78.6384 19.6408 77.91 19.7283 77.3564 19.3781C75.9287 18.4443 74.705 19.6116 73.627 17.8314V17.8022C72.7237 13.5414 68.4407 16.5181 65.5563 13.4538C64.9444 12.8701 64.9153 12.8409 65.5271 12.2573C67.9163 10.7105 64.653 9.57234 66.139 7.90885C66.7217 7.52946 66.3721 6.77068 65.7311 6.79986C65.4397 6.77068 65.1192 6.82905 64.857 6.68313C63.4876 5.72006 62.5552 7.67538 61.2732 6.9166C59.2629 5.86598 56.6989 7.29599 54.4263 6.88742H54.3971C51.6583 7.41273 48.7739 7.67538 46.3264 9.16376V9.19295L46.2973 9.16376C44.3743 10.4187 45.0444 10.2144 42.8884 10.156H42.8592C38.6345 11.6736 38.751 5.66169 36.391 12.1113C36.391 12.1113 36.391 12.1113 36.391 12.1405C36.0996 12.695 35.5461 12.9869 35.1964 13.483C35.1964 13.5122 35.1673 13.5122 35.1382 13.5122C34.4389 13.7748 33.5065 13.7748 32.9821 14.3293L32.9529 14.3585C32.5742 14.5336 32.1954 14.7087 32.108 15.1757C32.1663 15.1465 32.1954 15.1173 32.2245 15.0881C29.1361 17.9773 31.1174 24.5145 25.4067 24.748C25.4067 24.748 25.4067 24.748 25.3776 24.748C23.7751 25.069 24.0956 27.0535 22.901 27.8415C21.9104 28.4543 21.4733 29.3299 21.2402 30.4097C20.7449 32.4525 18.3558 33.474 18.0935 35.6628C18.0935 35.6919 18.0644 35.7211 18.0644 35.7211C18.0061 35.7795 17.977 35.8671 17.977 35.9546C17.9187 35.9838 17.9187 36.013 17.9187 36.0422C17.8313 36.1005 17.8022 36.1589 17.8022 36.2173C17.8022 36.2464 17.773 36.3048 17.7439 36.3048C17.5691 36.3924 17.5108 36.5966 17.4525 36.7718C17.4525 36.8009 17.4234 36.8009 17.3943 36.8301C17.1612 36.9469 16.9572 37.0928 16.8698 37.3846C16.8698 37.4138 16.8407 37.4138 16.8407 37.443C16.3454 37.8224 16.2288 39.3399 16.7241 39.7777C16.6659 39.8944 16.7241 40.0404 16.8407 40.1279C16.8115 40.2738 16.8698 40.3906 16.9864 40.4489C17.0155 40.4489 17.0155 40.4781 17.0155 40.5073C17.2777 41.0326 17.3651 41.5287 17.3069 42.1708V42.2C16.4619 44.0386 18.618 45.6145 16.899 47.3072C16.8407 47.3363 16.8407 47.3655 16.8407 47.4239C16.695 47.4823 16.6659 47.599 16.695 47.7449V47.7741C16.1414 48.5912 16.695 49.8461 16.4619 50.78C15.6461 51.6847 14.6846 52.1225 15.2965 53.5233C15.2965 53.5233 15.2965 53.5525 15.3256 53.5525C15.2965 53.6692 15.3256 53.786 15.4421 53.8443C16.4036 54.428 16.3745 55.216 16.0249 56.1499C15.0342 58.8056 18.4432 60.5567 19.9874 61.8116L20.0165 61.8407C20.7449 63.0665 21.7938 64.1171 21.9978 65.6347C22.1435 66.4226 22.5805 67.0063 23.1341 67.5316C23.2798 67.6483 23.4254 67.7651 23.6003 67.8234C26.8052 69.1075 27.0092 71.6174 29.7188 72.9306L29.748 72.9598H29.7771C29.8937 73.1057 30.0102 73.2517 30.185 73.2517C30.3598 73.2808 30.5055 73.31 30.6512 73.3976C30.7969 73.4559 30.9426 73.4851 31.1174 73.4559C33.6814 74.1272 36.1871 71.5298 38.6636 71.9676C38.6636 71.9676 38.6636 71.9676 38.6928 71.9676C39.5668 72.2302 39.7999 72.7263 41.1693 72.9598C42.1308 73.1349 43.0923 73.0766 43.8207 72.6972C43.879 72.668 43.9664 72.6972 43.9664 72.7555C44.0829 73.4851 44.4326 74.2731 45.3067 74.2147C45.802 74.2147 46.443 74.3023 46.5886 73.7186C47.0257 72.3178 48.8321 72.5804 49.24 71.2672C49.2692 71.2088 49.3274 71.1796 49.3857 71.2088C49.8519 71.2963 50.1141 71.2672 50.4929 71.2672C50.5512 71.2672 50.6094 71.3255 50.6094 71.3839C50.5803 73.1057 51.3087 73.8353 51.4252 75.0611C51.4252 75.8198 51.8623 76.316 52.4741 76.637C53.3774 76.958 52.7655 78.1254 53.6105 78.4172C54.1058 78.5631 54.2514 78.9133 54.3971 79.3511C54.7176 80.6352 55.9413 80.6936 55.9413 81.8025C55.9413 82.0068 55.9705 82.2403 56.1744 82.357C56.9028 82.8824 57.2816 83.6995 57.806 84.3999C58.3888 85.3046 59.2629 85.8883 59.933 86.7055C60.9236 87.7853 61.215 89.3028 62.3221 90.3826C63.0505 91.1998 64.4199 93.3886 64.0994 94.5851C63.7498 95.8984 63.4293 97.2117 63.6915 98.5833C63.6915 98.5833 63.6915 98.5833 63.6915 98.6125C63.6915 99.167 63.138 99.7507 63.8081 100.13C63.8372 100.13 63.8372 100.159 63.8372 100.159C64.0994 100.13 65.8768 103.457 65.5854 105.208C65.4688 105.792 66.2847 106.084 66.3429 106.638C66.4012 107.163 65.8185 107.017 65.6145 107.338C64.7404 108.506 65.1775 110.053 66.576 110.578C66.8674 110.695 67.1296 110.899 67.2753 111.191C67.3044 111.22 67.2753 111.249 67.2753 111.278C66.8382 112.154 68.4699 113.38 67.2753 114.459L67.2461 114.489C65.6437 114.926 66.3138 119.712 67.217 120.617L67.2461 120.646C67.6249 121.901 69.2274 122.485 69.9558 123.506C70.218 123.711 70.3928 124.178 70.5968 124.499C70.5968 124.528 70.6259 124.528 70.6259 124.557C70.6551 125.17 70.218 125.724 70.5385 126.308V126.337C70.5677 126.629 70.5968 126.921 70.9756 126.979V127.008C71.1504 127.213 71.3252 127.271 71.5583 127.329C71.5874 127.329 71.6166 127.359 71.6166 127.359C71.704 127.505 71.8497 127.592 72.0245 127.621C72.0536 127.621 72.0536 127.65 72.0827 127.65C72.782 128.38 71.8205 128.876 71.6166 129.489C71.1213 131.036 70.6551 132.904 72.6363 133.312C72.6946 133.312 72.7237 133.371 72.7237 133.429C72.3158 135.297 73.5978 134.859 72.8694 136.493C72.1119 137.952 72.9277 138.361 74.2388 138.74C75.2586 139.12 75.7539 140.637 74.9963 141.367C74.9672 141.367 74.9672 141.396 74.9381 141.396C74.5302 141.425 74.064 139.645 73.2482 140.229C73.219 140.229 73.2191 140.258 73.2191 140.287C73.1899 140.404 73.2773 140.491 73.3647 140.521C74.2971 141.017 74.501 142.038 75.0838 142.768C75.8704 143.76 75.3169 145.219 76.2492 146.211C77.1233 147.496 77.8226 148.809 77.5021 150.502C77.5021 150.502 77.5021 150.501 77.5021 150.531C76.8902 151.932 79.3376 155.871 80.7653 155.492C80.7944 155.492 80.7944 155.463 80.8236 155.463C81.4354 154.675 82.2221 154.383 83.2127 154.616C84.6404 155.083 84.7861 153.216 86.1555 153.449C90.4094 154.062 95.7995 152.369 97.6642 148.284V148.254C97.6934 147.992 97.8973 147.992 98.1013 147.904C100.49 146.97 99.7038 143.877 102.035 142.885C103.899 142.038 103.2 140.024 103.899 138.565C104.715 137.369 102.588 136.406 104.074 135.355C104.074 135.355 104.103 135.355 104.103 135.326C108.212 134.188 108.474 133.575 108.241 129.46C108.241 128.03 108.561 126.396 107.367 125.257C107.367 125.257 107.367 125.257 107.367 125.228C106.638 124.207 108.124 124.207 108.212 123.74C108.561 122.748 109.756 122.514 110.397 121.755C111.271 120.938 111.591 119.654 112.698 119.012H112.728C116.865 117.991 116.195 117.057 118.234 113.759C119.633 111.979 116.923 111.891 117.885 110.461C118.176 109.848 118.147 109.177 117.972 108.623C117.564 107.28 117.564 105.908 117.71 104.566C117.768 103.953 117.564 103.515 117.04 103.224C117.011 103.224 117.011 103.194 116.981 103.165C115.612 100.188 116.224 96.7739 116.195 93.5637C116.311 91.1414 117.011 88.9818 118.934 87.3475C121.177 85.4797 121.905 82.4738 124.178 80.606C126.159 78.7674 129.306 78.0086 130.005 75.1778C130.005 75.1194 130.064 75.0902 130.093 75.0902C130.238 75.0611 130.268 74.9443 130.297 74.7984C130.297 74.8568 130.384 74.9151 130.442 74.886C131.025 74.6525 131.142 74.098 131.375 73.5727C131.375 73.5435 131.404 73.5143 131.433 73.5143C131.724 73.4268 131.783 73.1933 131.841 72.9015C131.841 72.8723 131.841 72.8431 131.87 72.8431C132.249 72.4637 132.453 71.9967 132.628 71.5006C132.628 71.4714 132.657 71.4423 132.715 71.4423C132.832 71.4131 132.861 71.3547 132.802 71.238C132.773 71.238 132.744 71.2672 132.744 71.2672C132.919 71.1504 132.977 70.8878 133.123 70.6835L133.094 70.7127C133.123 70.6543 133.181 70.5667 133.21 70.5084C133.997 69.4577 134.376 68.2028 134.842 67.0938C134.842 67.0647 134.871 67.0355 134.929 67.0355C135.017 67.0063 135.075 66.9771 135.017 66.8896C134.988 66.8604 134.988 66.8312 135.017 66.802C135.541 64.9051 136.619 62.9789 136.532 60.8777Z" fill="url(#paint0_linear)"/>
<path d="M134.638 109.994C134.201 109.615 134.259 109.06 134.084 108.593C134.084 108.448 134.026 108.331 133.88 108.272C133.473 107.455 132.948 107.426 132.395 108.097C131.841 108.769 131.695 109.557 131.783 110.403C131.724 110.461 131.666 110.49 131.608 110.549C131.462 110.52 131.317 110.549 131.258 110.724C131.054 110.724 130.909 110.782 130.85 111.016C130.821 111.074 130.763 111.132 130.734 111.162C130.472 112.358 129.452 112.883 128.636 113.613C127.762 114.372 127.063 115.335 125.752 115.364C125.722 115.364 125.693 115.422 125.664 115.452C125.402 115.452 125.198 115.539 124.994 115.714C124.848 115.685 124.732 115.744 124.673 115.889C124.557 115.889 124.499 115.948 124.47 116.035H124.44C124.324 116.035 124.236 116.065 124.207 116.181C124.178 116.21 124.149 116.269 124.12 116.298C123.566 116.707 123.566 117.29 123.566 117.903C122.605 118.516 122.576 119.333 123.479 120.004C123.537 120.034 123.537 120.121 123.566 120.179C123.45 120.355 123.45 120.559 123.508 120.763C123.508 120.851 123.479 120.938 123.479 121.055C123.392 121.376 123.392 121.697 123.45 122.018C123.421 122.281 123.421 122.573 123.392 122.835C123.362 123.244 124.12 123.273 123.916 123.682C123.77 123.973 123.129 123.973 123.071 124.324C122.925 125.433 122.11 126.337 121.935 127.3C121.614 128.847 121.352 130.569 122.313 132.087C122.284 132.553 122.197 132.991 122.284 133.517C122.488 134.684 123.392 135.18 124.236 135.764C124.761 136.114 125.256 136.143 125.752 135.764C125.985 135.589 126.189 135.472 126.48 135.472C126.859 135.472 127.179 135.326 127.5 135.122C128.636 134.421 129.277 133.312 129.743 132.087C129.976 131.795 130.064 131.444 130.093 131.065C130.268 128.322 130.967 125.724 132.249 123.302C132.919 122.076 133.473 120.822 133.239 119.391C133.356 119.216 133.327 119.012 133.298 118.837C133.414 118.545 133.56 118.253 133.677 117.961C133.793 117.903 133.88 117.816 133.88 117.67C133.968 117.64 133.997 117.553 133.968 117.465C134.026 117.232 134.026 116.998 133.997 116.765C134.084 116.094 134.23 115.452 134.755 114.956C134.871 114.839 134.871 114.693 134.871 114.576C134.871 113.234 134.842 111.891 134.842 110.578C134.929 110.315 134.871 110.14 134.638 109.994Z" fill="url(#paint1_linear)"/>
<path d="M67.3044 111.249C67.1587 110.928 66.8965 110.695 66.576 110.578C65.2066 110.023 64.7404 108.477 65.6145 107.339C65.6437 107.309 65.6728 107.28 65.7019 107.251C65.9059 107.047 66.4012 107.105 66.3429 106.638C66.2847 106.317 66.0224 106.084 65.8185 105.85C65.6728 105.675 65.5271 105.442 65.5563 105.208C65.7019 104.362 65.498 103.691 65.2066 102.99C64.857 102.173 64.4782 101.356 64.1286 100.539C64.0703 100.393 63.9829 100.247 63.8372 100.159C63.4293 99.8966 63.4002 99.5756 63.575 99.1378C63.6333 98.9627 63.7207 98.7584 63.6915 98.6125C63.4293 97.2409 63.7498 95.9276 64.0994 94.5851C64.216 94.089 64.1286 93.5929 63.8664 93.1259C63.3419 92.1921 63.0214 91.0831 62.293 90.3827C61.1858 89.3028 60.9236 87.7853 59.9039 86.7055C59.5834 86.3553 59.2629 86.0342 58.9132 85.684C58.447 85.3338 58.1265 84.8669 57.7769 84.3999C57.2525 83.6995 56.9028 82.8824 56.1453 82.3571C55.9705 82.2403 55.9122 82.0069 55.9122 81.8026C55.9413 81.2773 55.65 80.9271 55.2421 80.6644C54.7468 80.3434 54.4845 79.8472 54.3389 79.3219C54.2223 78.8842 54.0766 78.534 53.5522 78.3881C53.086 78.2713 53.086 77.8044 52.9986 77.425C52.9403 77.0456 52.7946 76.7829 52.4159 76.5786C51.804 76.2868 51.367 75.7615 51.367 75.0027C51.367 73.9229 50.522 73.0474 50.5803 71.9384C50.5512 71.5882 50.5803 71.4715 50.5512 71.2088C50.726 70.7419 50.6677 70.3333 50.3763 69.9247C50.2015 69.6912 50.1433 69.3994 50.1141 69.0784C50.1141 68.8741 50.2598 68.5531 49.9393 68.4947C49.7062 68.4363 49.5897 68.7574 49.444 68.9033C49.2692 69.0784 49.24 69.341 49.24 69.6037C49.24 70.0998 49.2692 70.5959 49.24 71.0921C49.0652 71.7049 48.6573 72.026 48.0746 72.3178C47.521 72.6096 46.7635 72.8431 46.5304 73.6603C46.3847 74.2439 45.7146 74.1564 45.2484 74.1564C44.6948 74.1564 44.2869 73.8937 44.0829 73.3684C43.9955 73.1058 43.9373 72.8431 43.879 72.5805C43.879 72.4929 43.879 72.4345 43.8499 72.347C43.8499 72.0551 43.9664 71.9092 44.2286 71.7633C44.6948 71.5006 45.1027 71.1796 45.5397 70.917C45.7728 70.771 45.9477 70.4792 45.8311 70.2749C45.4523 69.7496 45.7146 69.4578 46.1225 69.1659C46.2682 69.0492 46.2681 68.9033 46.239 68.7282C46.4138 68.1445 46.3264 67.5316 46.4138 66.9188C46.5012 66.7728 46.5595 66.5977 46.5304 66.4226C46.5595 66.3643 46.5886 66.2767 46.5886 66.2184C46.6469 66.1308 46.6761 66.0141 46.7343 65.9265C47.1714 64.9051 47.5793 63.8545 48.4242 63.0373C48.9195 62.9789 49.0361 62.6579 48.9778 62.2202C48.9195 61.8408 48.8904 61.4614 48.8904 61.0528C48.8613 59.7687 49.1818 58.5138 49.4149 57.2589C49.5605 56.7919 49.7645 56.3542 49.881 55.8872C50.3472 53.9611 51.0173 52.1809 52.7364 51.0135C52.9695 50.6341 53.1443 50.2256 53.6979 50.1088C53.9892 50.0505 54.3389 49.6127 54.3389 49.2917C54.3097 48.241 54.8633 47.3363 54.9507 46.3149C55.0964 44.6514 55.7665 43.2214 57.5438 42.6669C57.7769 42.6085 57.9809 42.4626 58.214 42.3459C59.1172 42.0832 60.0495 42.0541 60.9819 42.2C62.293 42.4626 63.2836 43.2214 63.8955 44.418C64.1869 45.0016 64.3617 45.6437 64.5948 46.2565C64.5656 47.0737 64.5656 47.92 64.5365 48.7372C64.5074 48.7955 64.4782 48.8247 64.4491 48.8831C63.9829 49.0874 63.8664 49.4376 63.9246 49.9337C63.9829 50.3715 63.9538 50.8384 63.9538 51.3054C63.9538 51.568 63.8955 51.8015 63.5459 51.8015C63.4002 51.8015 63.1962 51.7723 63.2254 52.035C63.2545 52.2101 63.4293 52.1809 63.575 52.1809C64.5948 52.1225 65.6728 51.9766 66.6052 51.6848C67.6541 51.3637 68.7321 51.3637 69.781 51.0135C70.6259 50.7217 71.6166 50.7509 72.3158 49.9921C72.5198 49.7586 72.8986 49.6711 73.219 49.5543C73.9183 49.3209 74.5593 49.029 75.2586 48.8247C75.987 48.6204 76.5988 48.0368 77.3564 48.1243C78.7549 48.2702 79.7747 47.8325 80.4448 46.5776C80.6779 46.1398 80.6488 45.4686 81.0567 45.3227C81.7851 45.0016 82.1638 44.3888 82.6883 43.8926C83.1253 43.4549 83.5624 43.5424 84.0577 43.7759C84.6404 44.0677 84.9318 44.5639 85.1066 45.1475C85.1357 45.2935 84.9318 45.3518 84.9026 45.4686C84.6404 45.9939 83.9994 46.169 83.7372 46.6651C83.3293 47.3947 82.7466 48.0076 82.3678 48.7664C81.8725 49.4376 80.9984 49.7294 80.6488 50.5758C80.6196 50.6341 80.5031 50.7217 80.4157 50.7217C79.1628 50.8968 78.3761 51.9766 77.1816 52.356C76.3075 52.6186 75.4334 53.2607 74.5884 53.8444C73.7435 54.3989 72.7529 54.7491 71.8788 55.2452C70.8299 55.8289 69.6353 56.0332 68.5573 56.5585C67.9163 56.7628 67.3044 57.0254 66.6634 57.2005C64.9444 57.6675 63.2836 58.3387 61.5937 58.9516C61.2441 59.0683 61.1567 59.2434 61.3315 59.6228C62.0599 61.0236 62.7592 62.4536 62.8757 64.0587C62.8757 64.3214 62.9049 64.5841 62.9049 64.8759C62.8757 65.2261 62.8175 65.6055 63.0505 65.9265C63.2545 67.0063 63.2545 67.0063 64.2743 66.9188C64.4782 66.8896 64.653 66.8896 64.7987 67.0063C65.6145 67.5608 66.4886 67.6192 67.421 67.5024C68.062 67.4441 68.703 67.4441 69.3439 67.4441C69.8975 67.4441 70.5385 67.2982 70.9464 67.5316C71.5292 67.8818 72.0245 67.7651 72.5781 67.7651C73.1899 67.7651 73.7726 67.8235 74.2679 68.1737C74.5593 68.4072 74.8798 68.4947 75.2294 68.4363C76.2783 68.2904 77.2107 68.5531 78.0556 69.1951C78.0556 69.2535 78.0848 69.2827 78.1431 69.2827C78.1722 69.4286 78.2596 69.5161 78.3761 69.5745C78.8132 70.8294 79.7455 71.7633 80.4739 72.8139C80.9693 73.5435 81.6394 74.1272 82.3969 74.5358C82.8048 74.7692 83.1836 74.9735 83.475 75.3237V75.3529C83.5041 75.4113 83.5624 75.4697 83.5915 75.528C83.5041 76.0825 84.0577 76.1993 84.2908 76.5495C85.0483 77.7168 85.8058 78.9134 86.4177 80.1683C86.7673 80.9271 87.4957 80.9562 87.9911 80.285C87.9036 80.1099 87.5831 80.3142 87.4957 80.0224C88.1659 79.8473 88.8069 79.643 89.1856 79.0301C89.273 78.855 89.5353 78.9134 89.6809 78.855C90.4676 78.534 91.4 78.534 92.0118 77.8336C92.3032 77.5125 92.7111 77.3083 93.0899 77.104C94.197 76.5203 95.3625 77.2791 95.3625 78.534C95.3625 78.855 95.3625 79.176 95.3625 79.497C95.3334 79.5846 95.3042 79.6721 95.2751 79.7597C94.8672 80.0807 94.5758 80.4601 94.838 81.0438C94.3719 82.1528 93.6143 83.0867 92.682 83.7287C91.9536 84.2248 91.196 84.6918 90.4968 85.2755C89.5935 86.0051 88.9234 86.793 88.5446 87.8728C88.4864 88.0479 88.3407 88.1063 88.195 88.1647C86.7382 88.8067 85.631 88.5149 84.6987 87.2892C84.6987 87.2308 84.6695 87.2016 84.6695 87.1432C84.6695 86.9389 84.553 86.7638 84.4364 86.5887C84.2908 85.7716 84.0285 84.9544 83.6206 84.2832C83.0379 83.3785 82.3387 82.503 81.4937 81.8026L81.4646 81.7734C80.7653 80.8979 79.8912 80.3142 78.8715 79.9056C77.6769 79.4095 76.8902 78.5923 76.9485 77.1915C76.8319 76.5495 76.3658 76.1117 76.1035 75.5572C75.7248 74.7401 75.2586 74.565 74.4136 74.886C73.3939 75.2946 72.345 75.6739 71.2669 75.849C70.859 75.9074 71.0338 76.1409 71.063 76.3452C70.9464 76.4911 70.859 76.6662 70.7425 76.8121C70.2472 76.9289 69.781 77.1915 69.2274 77.1331C68.9652 77.104 68.8195 77.3083 68.7904 77.5417C68.7321 77.6001 68.703 77.6585 68.6447 77.6876L68.6738 77.6585C68.1494 77.9795 67.6832 77.4542 67.1879 77.5417C67.1005 77.4834 67.0131 77.4834 66.9256 77.5417C66.5177 77.4542 66.5177 77.6876 66.5469 77.9795C66.5469 78.1254 66.5469 78.2713 66.5177 78.4172C66.4886 78.4756 66.4886 78.5048 66.5177 78.534C66.5177 78.6215 66.5177 78.7383 66.5177 78.8258C66.4886 79.2636 66.4303 79.7013 66.6052 80.1099V80.1683L66.6634 80.1975C66.6926 80.2558 66.7508 80.285 66.78 80.3434C67.217 80.9562 67.3918 81.6567 66.9839 82.2987C66.3721 83.3201 66.576 84.3999 66.6926 85.4797C67.1005 86.793 67.8289 88.0188 67.9454 89.4196C68.0328 90.441 68.6447 91.2874 68.7612 92.2796L68.7321 92.3088L68.7612 92.338C68.7612 92.4547 68.7612 92.5714 68.7612 92.659L68.7321 92.7174L68.7612 92.7465C68.7612 92.98 68.7612 93.2135 68.7904 93.447C68.703 93.8555 68.6155 94.2641 68.5573 94.6435C68.3825 95.8692 68.4407 97.0366 69.2857 98.0288C69.4022 98.1748 69.4022 98.3791 69.4022 98.5542C69.4314 99.0795 69.4314 99.6048 69.4605 100.13C69.5188 101.181 69.3731 102.261 69.7227 103.253C69.9849 103.953 70.0141 104.683 70.0141 105.412C70.0141 106.784 70.6551 107.572 72.0245 107.805C72.141 107.835 72.2576 107.922 72.3741 107.981C72.782 108.593 73.3647 109.177 73.1608 109.965C72.9277 110.753 73.3647 110.957 73.8892 111.132C74.6176 111.366 75.2003 111.774 75.7539 112.271C76.1035 112.562 76.1035 112.796 75.6956 113.088C74.9963 113.613 74.2097 113.73 73.3647 113.817C71.6457 114.022 70.1598 113.759 68.936 112.417C68.6155 111.95 68.0328 111.453 67.3044 111.249Z" fill="#1D1D1B"/>
<path d="M102.326 69.8663C104.643 69.8663 106.522 67.9848 106.522 65.6638C106.522 63.3429 104.643 61.4614 102.326 61.4614C100.009 61.4614 98.1304 63.3429 98.1304 65.6638C98.1304 67.9848 100.009 69.8663 102.326 69.8663Z" fill="#1D1D1B"/>
<defs>
<linearGradient id="paint0_linear" x1="73.9141" y1="13.8965" x2="80.4998" y2="154.825" gradientUnits="userSpaceOnUse">
<stop offset="0.1101" stop-color="#009F3B"/>
<stop offset="0.1654" stop-color="#2BAB30"/>
<stop offset="0.2766" stop-color="#7BC11C"/>
<stop offset="0.3681" stop-color="#B6D20D"/>
<stop offset="0.4352" stop-color="#DADC04"/>
<stop offset="0.4709" stop-color="#E8E000"/>
<stop offset="0.5309" stop-color="#E8DA01"/>
<stop offset="0.6105" stop-color="#E8C904"/>
<stop offset="0.7012" stop-color="#E7AE09"/>
<stop offset="0.8" stop-color="#E6870F"/>
<stop offset="0.9043" stop-color="#E55617"/>
<stop offset="1" stop-color="#E42320"/>
</linearGradient>
<linearGradient id="paint1_linear" x1="128.251" y1="10.0159" x2="128.251" y2="153.972" gradientUnits="userSpaceOnUse">
<stop offset="0.4579" stop-color="#FCE800"/>
<stop offset="0.5053" stop-color="#FBDC01"/>
<stop offset="0.5916" stop-color="#F7BB04"/>
<stop offset="0.7071" stop-color="#F18609"/>
<stop offset="0.8458" stop-color="#E83E10"/>
<stop offset="0.9451" stop-color="#E20615"/>
</linearGradient>
</defs>
</svg>
